General
Complete name : Goodfellas.1990.BRRip.H264.AAC.5.1ch.Gopo.mp4
Format : MPEG-4
Format profile : Base Media
Codec ID : isom
File size : 2.20 GiB
Duration : 2h 25mn
Overall bit rate : 2 168 Kbps
Encoded date : UTC 2009-11-17 03:40:39
Tagged date : UTC 2009-11-17 03:40:39
Video #1
ID : 1
Format : AVC
Format/Info : Advanced Video Codec
Format profile : High@L4.1
Format settings, CABAC : Yes
Format settings, ReFrames : 4 frames
Codec ID : avc1
Codec ID/Info : Advanced Video Coding
Duration : 2h 25mn
Bit rate mode : Variable
Bit rate : 1 864 Kbps
Maximum bit rate : 5 034 Kbps
Width : 1 904 pixels
Height : 1 080 pixels
Display aspect ratio : 16:9
Frame rate mode : Constant
Frame rate : 23.976 fps
Resolution : 24 bits
Colorimetry : 4:2:0
Scan type : Progressive
Bits/(Pixel*Frame) : 0.038
Stream size : 1.89 GiB (86%)
Writing library : x264 core 68 r1183M f21daff
Encoding settings : cabac=1 / ref=4 / deblock=1:-1:-1 / analyse=0x3:0x113 / me=umh / subme=7 / psy_rd=1.0:0.0 / mixed_ref=1 / me_range=16 / chroma_me=1 / trellis=2 / 8x8dct=1 / cqm=0 / deadzone=21,11 / chroma_qp_offset=-2 / threads=3 / nr=0 / decimate=1 / mbaff=0 / bframes=3 / b_pyramid=0 / b_adapt=2 / b_bias=0 / direct=3 / wpredb=1 / keyint=250 / keyint_min=25 / scenecut=40 / rc=2pass / bitrate=1864 / ratetol=1.0 / qcomp=0.60 / qpmin=10 / qpmax=51 / qpstep=4 / cplxblur=20.0 / qblur=0.5 / vbv_maxrate=50000 / vbv_bufsize=50000 / ip_ratio=1.40 / pb_ratio=1.30 / aq=1:1.00
Encoded date : UTC 2009-11-16 03:33:05
Tagged date : UTC 2009-11-17 03:44:34
Audio #2
ID : 2
Format : AAC
Format/Info : Advanced Audio Codec
Format version : Version 4
Format profile : LC
Format settings, SBR : No
Codec ID : 40
Duration : 2h 25mn
Bit rate mode : Variable
Bit rate : 301 Kbps
Maximum bit rate : 385 Kbps
Channel(s) : 6 channels
Channel positions : Front: L C R, Rear: L R, LFE
Sampling rate : 48.0 KHz
Resolution : 16 bits
Stream size : 314 MiB (14%)
Encoded date : UTC 2009-11-17 03:44:00
Tagged date : UTC 2009-11-17 03:44:34
Subtitle: English,Romanian

PLOT

This film views the mob lives of three pivotal figures in the 1960's and 70's New York. Henry Hill is a local boy turned gangster in a neighborhood full of the roughest and toughest. Tommy Devito is a pure bred gangster, who turns out to be Henry's best friend. Jimmy Conway puts the two of them together, and runs some of the biggest hijacks and burglaries the town has ever seen. After an extended jail sentence, Henry must sneak around the back of the local mob boss, Paulie Cicero, to live the life of luxury he has always dreamed of. In the end, the friends end up in a hell of a jam, and must do anything they can to save each other, and stay alive.

Director: Martin Scorsese
CASTING

Robert De Niro ... James 'Jimmy' Conway
Ray Liotta ... Henry Hill
Joe Pesci ... Tommy DeVito
Lorraine Bracco ... Karen Hill
Paul Sorvino ... Paul Cicero
Frank Sivero ... Frankie Carbone
Tony Darrow ... Sonny Bunz
Mike Starr ... Frenchy
Frank Vincent ... Billy Batts
Chuck Low ... Morris 'Morrie' Kessler
Frank DiLeo ... Tuddy Cicero
Henny Youngman ... Himself
Gina Mastrogiacomo ... Janice Rossi
Catherine Scorsese ... Tommy's Mother
Charles Scorsese ... Vinnie

SOURCE: Goodfellas.1990.BluRay.1080p.AC3.x264.dxva-EuReKA

Notes: For best performance I suggest you to use KMPlayer(find it with google) for playback